<svg width="24" height="24" viewBox="0 0 24 24" fill="none" xmlns="http://www.w3.org/2000/svg">
<g id="Heading 1">
<path id="T" d="M19.4621 20H16.0021L16.0921 19.57C16.4388 19.4233 16.8021 19.31 17.1821 19.23L18.1621 14.64L18.3521 14.05C18.1588 14.1033 17.9521 14.1433 17.7321 14.17C17.5188 14.19 17.3055 14.1967 17.0921 14.19L17.1221 13.82C17.5021 13.7267 17.9155 13.6 18.3621 13.44C18.8088 13.28 19.2321 13.0933 19.6321 12.88H19.9721L18.6221 19.23C18.7755 19.2633 18.9288 19.31 19.0821 19.37C19.2421 19.4233 19.3988 19.49 19.5521 19.57L19.4621 20Z" fill="#6F6E69"/>
<path id="T_2" d="M8.44281 17H3.89781L4.00281 16.43C4.20281 16.33 4.41781 16.245 4.64781 16.175C4.88781 16.095 5.11781 16.035 5.33781 15.995L7.13781 7.505C6.90781 7.465 6.69281 7.405 6.49281 7.325C6.29281 7.245 6.12781 7.16 5.99781 7.07L6.11781 6.5H10.6628L10.5428 7.07C10.3928 7.18 10.2128 7.27 10.0028 7.34C9.79281 7.41 9.58781 7.465 9.38781 7.505L8.60781 11.135H12.5828L13.3628 7.505C12.9328 7.395 12.6078 7.25 12.3878 7.07L12.5078 6.5H17.0528L16.9328 7.07C16.7428 7.18 16.5278 7.275 16.2878 7.355C16.0578 7.425 15.8328 7.475 15.6128 7.505L13.8128 15.995C14.0328 16.035 14.2378 16.095 14.4278 16.175C14.6278 16.255 14.7978 16.34 14.9378 16.43L14.8328 17H10.2878L10.3928 16.43C10.5628 16.34 10.7478 16.255 10.9478 16.175C11.1478 16.095 11.3528 16.035 11.5628 15.995L12.3728 12.11H8.39781L7.58781 15.995C7.92781 16.065 8.24781 16.21 8.54781 16.43L8.44281 17Z" fill="#6F6E69"/>
</g>
</svg>
