<svg width="24" height="24" viewBox="0 0 24 24" fill="none" xmlns="http://www.w3.org/2000/svg">
<g id="Heading 2">
<path id="T" d="M17.1521 15.22H16.8121C16.7921 15.12 16.7688 15.0033 16.7421 14.87C16.7155 14.7367 16.6921 14.5967 16.6721 14.45C16.6521 14.3033 16.6355 14.16 16.6221 14.02C16.6088 13.8733 16.6021 13.74 16.6021 13.62C16.7288 13.5333 16.8688 13.4467 17.0221 13.36C17.1755 13.2667 17.3421 13.1867 17.5221 13.12C17.7088 13.0467 17.9121 12.99 18.1321 12.95C18.3588 12.9033 18.6021 12.88 18.8621 12.88C19.2288 12.88 19.5355 12.9233 19.7821 13.01C20.0288 13.0967 20.2255 13.21 20.3721 13.35C20.5255 13.49 20.6321 13.6533 20.6921 13.84C20.7588 14.02 20.7921 14.21 20.7921 14.41C20.7921 14.83 20.6721 15.2367 20.4321 15.63C20.1988 16.0167 19.9021 16.3833 19.5421 16.73C19.1888 17.0767 18.8021 17.4 18.3821 17.7C17.9688 17.9933 17.5855 18.2567 17.2321 18.49L16.6421 18.84V18.88L17.2521 18.82H18.9721L19.7021 17.7H20.0421C20.0355 17.86 20.0221 18.05 20.0021 18.27C19.9821 18.4833 19.9588 18.7 19.9321 18.92C19.9055 19.1333 19.8755 19.3367 19.8421 19.53C19.8088 19.7233 19.7788 19.88 19.7521 20H15.1721L15.3121 19.36C15.5455 19.1867 15.8088 18.9867 16.1021 18.76C16.3955 18.5333 16.6955 18.29 17.0021 18.03C17.3088 17.7633 17.6088 17.4833 17.9021 17.19C18.1955 16.8967 18.4555 16.5967 18.6821 16.29C18.9088 15.9833 19.0921 15.6733 19.2321 15.36C19.3721 15.0467 19.4421 14.74 19.4421 14.44C19.4421 14.1933 19.3655 13.99 19.2121 13.83C19.0655 13.6633 18.8321 13.58 18.5121 13.58C18.2921 13.58 18.0721 13.61 17.8521 13.67L17.1521 15.22Z" fill="#6F6E69"/>
<path id="T_2" d="M8.44281 17H3.89781L4.00281 16.43C4.20281 16.33 4.41781 16.245 4.64781 16.175C4.88781 16.095 5.11781 16.035 5.33781 15.995L7.13781 7.505C6.90781 7.465 6.69281 7.405 6.49281 7.325C6.29281 7.245 6.12781 7.16 5.99781 7.07L6.11781 6.5H10.6628L10.5428 7.07C10.3928 7.18 10.2128 7.27 10.0028 7.34C9.79281 7.41 9.58781 7.465 9.38781 7.505L8.60781 11.135H12.5828L13.3628 7.505C12.9328 7.395 12.6078 7.25 12.3878 7.07L12.5078 6.5H17.0528L16.9328 7.07C16.7428 7.18 16.5278 7.275 16.2878 7.355C16.0578 7.425 15.8328 7.475 15.6128 7.505L13.8128 15.995C14.0328 16.035 14.2378 16.095 14.4278 16.175C14.6278 16.255 14.7978 16.34 14.9378 16.43L14.8328 17H10.2878L10.3928 16.43C10.5628 16.34 10.7478 16.255 10.9478 16.175C11.1478 16.095 11.3528 16.035 11.5628 15.995L12.3728 12.11H8.39781L7.58781 15.995C7.92781 16.065 8.24781 16.21 8.54781 16.43L8.44281 17Z" fill="#6F6E69"/>
</g>
</svg>
