<svg width="24" height="24" viewBox="0 0 24 24" fill="none" xmlns="http://www.w3.org/2000/svg">
<g id="Heading 3">
<path id="T" d="M17.4221 19.47C17.6621 19.47 17.8755 19.4233 18.0621 19.33C18.2555 19.23 18.4155 19.1 18.5421 18.94C18.6755 18.78 18.7755 18.5967 18.8421 18.39C18.9155 18.1767 18.9521 17.96 18.9521 17.74C18.9521 17.54 18.9221 17.3767 18.8621 17.25C18.8088 17.1233 18.7288 17.0233 18.6221 16.95C18.5221 16.8767 18.4021 16.8267 18.2621 16.8C18.1221 16.7733 17.9721 16.76 17.8121 16.76H17.2621L17.3121 16.37L19.1921 14.4L19.6521 14.05V14.01L19.1021 14.07H17.6321L17.0221 15.09H16.6821C16.6821 14.95 16.6821 14.7833 16.6821 14.59C16.6888 14.3967 16.6988 14.2033 16.7121 14.01C16.7255 13.8167 16.7388 13.63 16.7521 13.45C16.7721 13.27 16.7955 13.12 16.8221 13H21.1521L21.0821 13.49L18.9721 15.6L18.3921 16.04V16.06L18.7421 15.99C19.2955 16.0233 19.7021 16.1867 19.9621 16.48C20.2221 16.7667 20.3521 17.14 20.3521 17.6C20.3521 17.94 20.2921 18.2633 20.1721 18.57C20.0588 18.8767 19.8755 19.1467 19.6221 19.38C19.3755 19.6067 19.0555 19.7867 18.6621 19.92C18.2688 20.0533 17.7955 20.12 17.2421 20.12C17.0421 20.12 16.8421 20.1033 16.6421 20.07C16.4488 20.0433 16.2655 20.0033 16.0921 19.95C15.9255 19.8967 15.7755 19.8333 15.6421 19.76C15.5088 19.6867 15.4021 19.6067 15.3221 19.52L15.9121 18.48H16.2021C16.2355 18.5267 16.2788 18.59 16.3321 18.67C16.3855 18.7433 16.4388 18.8233 16.4921 18.91C16.5521 18.9967 16.6088 19.0833 16.6621 19.17C16.7221 19.2567 16.7721 19.33 16.8121 19.39C16.9588 19.4433 17.1621 19.47 17.4221 19.47Z" fill="#6F6E69"/>
<path id="T_2" d="M8.44281 17H3.89781L4.00281 16.43C4.20281 16.33 4.41781 16.245 4.64781 16.175C4.88781 16.095 5.11781 16.035 5.33781 15.995L7.13781 7.505C6.90781 7.465 6.69281 7.405 6.49281 7.325C6.29281 7.245 6.12781 7.16 5.99781 7.07L6.11781 6.5H10.6628L10.5428 7.07C10.3928 7.18 10.2128 7.27 10.0028 7.34C9.79281 7.41 9.58781 7.465 9.38781 7.505L8.60781 11.135H12.5828L13.3628 7.505C12.9328 7.395 12.6078 7.25 12.3878 7.07L12.5078 6.5H17.0528L16.9328 7.07C16.7428 7.18 16.5278 7.275 16.2878 7.355C16.0578 7.425 15.8328 7.475 15.6128 7.505L13.8128 15.995C14.0328 16.035 14.2378 16.095 14.4278 16.175C14.6278 16.255 14.7978 16.34 14.9378 16.43L14.8328 17H10.2878L10.3928 16.43C10.5628 16.34 10.7478 16.255 10.9478 16.175C11.1478 16.095 11.3528 16.035 11.5628 15.995L12.3728 12.11H8.39781L7.58781 15.995C7.92781 16.065 8.24781 16.21 8.54781 16.43L8.44281 17Z" fill="#6F6E69"/>
</g>
</svg>
