<svg width="24" height="24" viewBox="0 0 24 24" fill="none" xmlns="http://www.w3.org/2000/svg">
<g id="Text">
<path id="T" d="M14.339 19H8.14702L8.29102 18.316C8.55502 18.208 8.84902 18.106 9.17302 18.01C9.49702 17.914 9.82102 17.842 10.145 17.794L12.323 7.57H10.235L8.41702 10.648H7.67902C7.67902 10.408 7.69102 10.102 7.71502 9.73C7.75102 9.358 7.78702 8.974 7.82302 8.578C7.87102 8.182 7.92502 7.792 7.98502 7.408C8.04502 7.012 8.11102 6.676 8.18302 6.4H19.649C19.589 6.688 19.505 7.024 19.397 7.408C19.301 7.792 19.193 8.182 19.073 8.578C18.953 8.974 18.827 9.358 18.695 9.73C18.575 10.09 18.461 10.396 18.353 10.648H17.597L17.111 7.57H15.023L12.845 17.794C13.145 17.854 13.439 17.926 13.727 18.01C14.015 18.094 14.267 18.196 14.483 18.316L14.339 19Z" fill="#6F6E69"/>
</g>
</svg>
